<?xml version="1.0" encoding="UTF-8"?>
<svg id="_레이어_1" data-name="레이어_1" xmlns="http://www.w3.org/2000/svg" version="1.1" xmlns:xlink="http://www.w3.org/1999/xlink" viewBox="0 0 745.79 102.27">
  <!-- Generator: Adobe Illustrator 30.1.0, SVG Export Plug-In . SVG Version: 2.1.1 Build 136)  -->
  <defs>
    <style>
      .st0 {
        fill: #e5a145;
      }

      .st1 {
        fill: url(#_무제_그라디언트_413);
      }

      .st2 {
        fill: #2f6db6;
      }

      .st3 {
        fill: url(#_무제_그라디언트_404);
      }

      .st4 {
        fill: url(#_무제_그라디언트_396);
      }
    </style>
    <linearGradient id="_무제_그라디언트_396" data-name="무제 그라디언트 396" x1="97.27" y1="54.19" x2="68.71" y2="68.88" gradientUnits="userSpaceOnUse">
      <stop offset=".28" stop-color="#8dcbf0"/>
      <stop offset="1" stop-color="#50aae0"/>
    </linearGradient>
    <linearGradient id="_무제_그라디언트_413" data-name="무제 그라디언트 413" x1="38.13" y1="21.13" x2="9.51" y2="89.5" gradientUnits="userSpaceOnUse">
      <stop offset=".15" stop-color="#5198d3"/>
      <stop offset=".74" stop-color="#2d6db6"/>
    </linearGradient>
    <linearGradient id="_무제_그라디언트_404" data-name="무제 그라디언트 404" x1="74.13" y1="41.57" x2="87.24" y2="90.61" gradientUnits="userSpaceOnUse">
      <stop offset=".09" stop-color="#559dd6"/>
      <stop offset="1" stop-color="#2163af"/>
    </linearGradient>
  </defs>
  <path class="st2" d="M144.35,47.95v14.07c0,2.38-.09,3.44,2.63,3.63,3.45.24,7.01,0,10.47-.02l21.21-.08c.69,0,1.42,0,2.01.36,1.64.98,1.07,7.3.69,9-.87,3.82-7.38,2.42-10.09,2.45-9.77.12-19.53.28-29.3.18-4.72-.05-10.77-.89-11.56-6.64.09-9.82.19-19.65.28-29.47.03-3.14-.3-5.39,3.43-5.38,2.59,0,5.19,0,7.78,0h18.11v-14.96h-27.73c-.46,0-1.74-1.26-1.86-1.88-.23-1.21-.2-6.52-.03-7.83.23-1.8,1.74-1.95,3.19-2,2.69-.09,5.4-.02,8.1-.07,8.66-.13,17.35-.86,25.99-.14,3.78.32,6.56,2.4,6.96,6.3.87,8.56-.64,18.49,0,27.19-.08,2.62-2.71,5.27-5.27,5.27,0,0-25,0-25,0Z"/>
  <path class="st2" d="M319.55,22.45c-.17.12.34.44.34.51v14.45h27.39c.15,0,1.27,1.27,1.36,1.65-.61,1.46.86,9.56-1.36,9.56h-27.39v17h34.19c.18,0,1,.64,1.16.89.55.87.54,6.79.38,8.13s-.85,2.27-2.24,2.52l-40.42-.02c-4.05-.49-7.25-2.2-7.69-6.59l.15-57.63,1.53-1.53,43.66-.08c.45.13,1.17.95,1.34,1.38.54,1.36.73,9.77-1.27,9.77h-31.13Z"/>
  <path class="st2" d="M239.95,91.8h46.1c2.33,0,2.06,6.11,1.89,7.67-.13,1.26-.64,2.39-1.96,2.8l-54.89-.08c-2.28-.38-4.13-1.32-4.82-3.68-.56-1.91-.61-16.42-.25-18.75.22-1.4,1.95-2.57,3.21-2.57h42.35v-4.42h-43.37c-.3,0-1.67-1.15-1.8-1.6-.27-.92-.2-6.68.25-7.43.24-.4,1.15-.99,1.62-1.1l52.78.15c2.28.35,4.46,2.44,4.78,4.74.47,3.31.33,11.79.02,15.26-.08.96-.7,4.25-1.87,4.25h-43.88l-.43.5.26,4.26Z"/>
  <path class="st2" d="M239.95,10.89v5.1h41.33c.51,0,1.33,1.04,1.46,1.6.33,1.46.38,8.26-1.8,8.26h-40.99v5.1h43.37c.22,0,1.1,1.09,1.18,1.54.23,1.2.17,7.17-.51,7.97-.35.41-.85.6-1.37.67l-52.04.03c-2.66-.4-4.27-2.34-4.59-4.94.82-9.91-1.09-21.57,0-31.28.31-2.77,2.45-4.83,5.26-4.94l50.62.09c1.47.26,2.13.98,2.3,2.46.19,1.62.51,8.34-1.88,8.34h-42.35Z"/>
  <path class="st2" d="M525.03,26.19v6.63c0,4.81,12.89,13.73,16.91,16.08,2.95,1.72,6.9,3.1,9.52,4.76,1.04.66,1.88,1.28,1.83,2.6s-4.7,8.76-5.99,9.01c-2.01.39-7.05-2.19-9.01-3.22-6.85-3.58-13.23-8.55-18.55-14.11-.28-.29-.46-.62-.5-1.02h-.5c-6.54,7.18-15.17,14.56-24.33,18.18-2.11.83-4.02,1.87-5.95.18-.79-.69-5.21-6.84-5.26-7.68-.03-.48.11-.91.37-1.3.44-.67,9.74-5.1,11.5-6.18,5.18-3.19,15.68-11.72,15.68-18.33v-5.61h-19.22c-.58,0-1.99-1.59-2.14-2.28-.24-1.06-.25-6.3-.05-7.39.27-1.5,2.05-2.63,3.54-2.58l51.99.09c1.31.46,2.13,1.42,2.29,2.81s.22,6.25-.02,7.48c-.09.49-1.33,1.88-1.52,1.88h-20.58Z"/>
  <path class="st2" d="M420.51,61.97c13.87.16,27.95-.67,41.76.25,4.03.27,7.86-.58,8.34,4.92.82,9.31-.65,19.81,0,29.26-1.01,4.41-3.91,5.3-8,5.41-10.69.28-21.63.09-32.3.2-5.28.06-14.02,1.08-14.81-5.96.73-9.31-.98-20.11,0-29.24.31-2.88,2.28-4.38,5.02-4.84ZM456.31,73.44h-26.19v17c.25.09.41-.34.51-.34h25.68v-16.66Z"/>
  <path class="st2" d="M416.44,9.63c14.08-1.25,28.9,5.8,30.3,21.19,2.66,29.13-44.32,34.38-51.75,8.54-4.28-14.87,6.54-28.41,21.45-29.73ZM417.44,21.51c-12.27,1.91-12.81,21.48,1.62,22.69,19.02,1.59,17.65-25.68-1.62-22.69Z"/>
  <path class="st2" d="M377.39,34.69h10.72c.18,0,1,.64,1.16.89.54.85.56,7.82.36,9.12-.08.5-.8,1.89-1.17,1.89h-11.06v42.66c0,.71-1.47,1.73-2.23,1.85-1.87.29-7.9.25-9.85.03-1.17-.14-1.94-.6-2.39-1.69l-.08-81.02c.29-1.04,1.08-1.75,2.16-1.92,1.9-.3,7.16-.22,9.18-.04,1.08.1,3.22,1.07,3.22,2.23v26.01Z"/>
  <path class="st2" d="M192.22,6.55c1.41-.31,8.91-.29,10.45-.05,1.17.18,2.03,1.03,2.21,2.21l.03,79.87c-.06,1.31-.94,2.32-2.24,2.52-1.72.27-8.45.27-10.17,0-.9-.14-2.04-.91-2.22-1.86l-.02-79.89c-.08-1.26.7-2.52,1.96-2.8Z"/>
  <path class="st2" d="M555.83,73.95c1.83.13,2.4,1.01,2.56,2.7.22,2.41.83,8.62-2.25,9l-72.8.04c-1.11.1-2.65-.74-2.87-1.89-.2-1.07-.17-7.05.06-8.08.21-.93.89-1.47,1.82-1.58l73.47-.19Z"/>
  <path class="st2" d="M216.9,57.38c-1-.94-.99-7.09-.75-8.56.17-1.07,1.05-1.96,2.18-1.89l75.69.18c1.75.78,1.66,7.11,1.29,8.76-.22,1-1.15,1.78-2.16,1.92l-74.5.03c-.56-.04-1.35-.05-1.77-.44Z"/>
  <path class="st2" d="M458.25,6.54c1.04-.23,9.85-.26,10.74,0,2.71.79,1.61,5.04,1.59,6.88-.07,5.79.01,11.63,0,17.34-.01,7.18.81,17,.02,23.82-.17,1.48-.83,2.2-2.3,2.46-1.7.3-8.05.33-9.76.06-1.07-.17-1.86-.88-2.16-1.92l-.09-46.52c-.03-.97,1.07-1.92,1.96-2.12Z"/>
  <path class="st0" d="M702.51,41.31c24.71-2.81,25.32,31.92,1.59,30.86-20.18-.9-20.58-28.7-1.59-30.86ZM703.52,48.77c-6.9,1.17-7.78,12.55-1.61,15.39,4.2,1.93,9.53-.42,10.18-5.13.83-6.07-1.65-11.43-8.56-10.26Z"/>
  <path class="st0" d="M610.74,42.23v17.17c0,.11.5,1.85.6,2.12,1.65,4.06,7.34,3.57,9.55.21.19-.29,1.08-2.17,1.08-2.32v-17.17h9.19v28.73l-.51.51h-7.82l-.68-3.06c-3.3,4.51-12.33,4.55-16.47,1.16-1.27-1.04-3.77-4.54-3.77-6.09v-21.25h8.84Z"/>
  <path class="st0" d="M646.46,42.23l.17,3.4c4.6-6.52,16.12-5.92,19.52,1.58.28.61,1.06,2.86,1.06,3.36v20.57h-9.19v-18.53c0-.13-.69-1.6-.87-1.85-1.86-2.74-6.59-2.49-8.66-.19-.56.62-1.7,3.33-1.7,4.08v16.49h-8.84v-28.9h8.5Z"/>
  <path class="st0" d="M595.09,42.23v28.73c0,8.75-7.06,13.52-15.33,12.26-.74-.11-3.71-.81-3.67-1.64l1.32-6.01c2.44.25,5.78.79,7.42-1.59.25-.36,1.07-2.37,1.07-2.67v-28.56l.51-.51h8.67Z"/>
  <path class="st0" d="M745.79,49.71c-3.49-.93-7.16.25-8.8,3.61-.45.92-1.06,3.46-1.06,4.38v13.43h-9.19v-28.9h8.84l.51,3.74c1.4-3.44,6.4-5.52,9.7-3.91v7.65Z"/>
  <polygon class="st0" points="683.2 71.13 674.01 71.13 674.01 42.23 682.69 42.23 683.2 42.74 683.2 71.13"/>
  <path class="st0" d="M677.32,29.4c7.05-1.31,8.54,7.26,3.16,9.27-7.12,2.65-10.04-7.99-3.16-9.27Z"/>
  <path class="st0" d="M586.01,37.37c-1.93-2.29-.53-7.01,2.52-7.63,4.58-.93,8.24,2.02,6.28,6.62-1.43,3.35-6.56,3.68-8.8,1.02Z"/>
  <g>
    <polygon class="st4" points="59.23 64.91 88.44 43.47 88.26 74.08 59.23 64.91"/>
    <path class="st1" d="M51.23,78.63l-45.03,12.49c-2.89.83-5.79-1.3-5.81-4.28L0,24.88c-.02-3.25,2.18-6.1,5.35-6.94L51.55,5.8l-.31,72.82Z"/>
    <path class="st3" d="M97.37,18.45L51.53,5.8l-.38,72.81,44.1,12.72c3.32.96,6.65-1.49,6.67-4.92l.39-61.46c.02-3.03-2.01-5.69-4.95-6.52ZM88.26,72.82l-28.45-8.12.26-38.55,28.27,8.22-.09,38.45Z"/>
  </g>
</svg>