<?xml version="1.0" encoding="UTF-8"?>
<svg id="_레이어_1" data-name="레이어_1" xmlns="http://www.w3.org/2000/svg" version="1.1" xmlns:xlink="http://www.w3.org/1999/xlink" viewBox="0 0 102.32 85.75">
  <!-- Generator: Adobe Illustrator 30.1.0, SVG Export Plug-In . SVG Version: 2.1.1 Build 136)  -->
  <defs>
    <style>
      .st0 {
        fill: url(#_무제_그라디언트_413);
      }

      .st1 {
        fill: url(#_무제_그라디언트_404);
      }

      .st2 {
        fill: url(#_무제_그라디언트_396);
      }
    </style>
    <linearGradient id="_무제_그라디언트_396" data-name="무제 그라디언트 396" x1="97.27" y1="48.39" x2="68.71" y2="63.07" gradientUnits="userSpaceOnUse">
      <stop offset=".28" stop-color="#8dcbf0"/>
      <stop offset="1" stop-color="#50aae0"/>
    </linearGradient>
    <linearGradient id="_무제_그라디언트_413" data-name="무제 그라디언트 413" x1="38.13" y1="15.33" x2="9.51" y2="83.7" gradientUnits="userSpaceOnUse">
      <stop offset=".15" stop-color="#5198d3"/>
      <stop offset=".74" stop-color="#2d6db6"/>
    </linearGradient>
    <linearGradient id="_무제_그라디언트_404" data-name="무제 그라디언트 404" x1="74.13" y1="35.77" x2="87.24" y2="84.81" gradientUnits="userSpaceOnUse">
      <stop offset=".09" stop-color="#559dd6"/>
      <stop offset="1" stop-color="#2163af"/>
    </linearGradient>
  </defs>
  <polygon class="st2" points="59.23 59.11 88.44 37.67 88.26 68.28 59.23 59.11"/>
  <path class="st0" d="M51.23,72.82l-45.03,12.49c-2.89.83-5.79-1.3-5.81-4.28L0,19.08c-.02-3.25,2.18-6.1,5.35-6.94L51.55,0l-.31,72.82Z"/>
  <path class="st1" d="M97.37,12.64L51.53,0l-.38,72.81,44.1,12.72c3.32.96,6.65-1.49,6.67-4.92l.39-61.46c.02-3.03-2.01-5.69-4.95-6.52ZM88.26,67.02l-28.45-8.12.26-38.55,28.27,8.22-.09,38.45Z"/>
</svg>